<svg width="25" height="23" viewBox="0 0 25 23" fill="none" xmlns="http://www.w3.org/2000/svg">
<path d="M24.192 8.09895L16.6975 7.04962L13.3472 0.506195C13.2557 0.32704 13.1052 0.182009 12.9192 0.0938536C12.4528 -0.127957 11.8861 0.0568852 11.6529 0.506195L8.30266 7.04962L0.808145 8.09895C0.601522 8.12739 0.41261 8.22123 0.267974 8.36342C0.0931164 8.53657 -0.00323781 8.76951 8.308e-05 9.01106C0.00340397 9.25261 0.106128 9.48301 0.285684 9.65163L5.70806 14.7448L4.427 21.9365C4.39696 22.1038 4.41618 22.2759 4.48247 22.4332C4.54877 22.5905 4.65949 22.7268 4.80208 22.8266C4.94467 22.9263 5.11342 22.9856 5.28921 22.9977C5.46499 23.0098 5.64077 22.9742 5.79662 22.8949L12.5001 19.4995L19.2035 22.8949C19.3865 22.9887 19.599 23.02 19.8027 22.9859C20.3163 22.9006 20.6617 22.4314 20.5731 21.9365L19.2921 14.7448L24.7144 9.65163C24.862 9.51229 24.9594 9.33029 24.9889 9.13123C25.0686 8.63358 24.7085 8.17289 24.192 8.09895V8.09895Z" fill="#FFD800"/>
</svg>
