<svg width="25" height="23" viewBox="0 0 25 23" fill="none" xmlns="http://www.w3.org/2000/svg">
<path d="M16.2524 7.27749L16.3708 7.50876L16.6281 7.54479L24.1211 8.59391C24.1214 8.59394 24.1216 8.59397 24.1218 8.59401C24.3846 8.63196 24.5271 8.8532 24.4952 9.05216L24.4952 9.05216L24.4944 9.05789C24.482 9.14156 24.4405 9.22256 24.3713 9.28794C24.3713 9.28798 24.3712 9.28803 24.3712 9.28807L18.9497 14.3803L18.7523 14.5658L18.7998 14.8324L20.0809 22.0242L20.0809 22.0246C20.1173 22.2275 19.9776 22.45 19.7208 22.4926L19.7201 22.4928C19.6194 22.5096 19.5162 22.4933 19.4317 22.45L19.4294 22.4488L12.726 19.0534L12.5001 18.939L12.2741 19.0534L5.57069 22.4488L5.56993 22.4492C5.49532 22.4872 5.4098 22.5048 5.32347 22.4989C5.23717 22.4929 5.15589 22.4639 5.08873 22.4169C5.02172 22.37 4.9722 22.3078 4.94323 22.239C4.91433 22.1705 4.90627 22.0965 4.91913 22.0249L4.91925 22.0242L6.20032 14.8324L6.24782 14.5658L6.05038 14.3803L0.627999 9.28719L0.627967 9.28716C0.545115 9.20935 0.501451 9.1071 0.500036 9.00418C0.498625 8.90157 0.539208 8.79883 0.619142 8.71935C0.686955 8.65296 0.776589 8.60801 0.876317 8.59429L0.877476 8.59412L8.37199 7.54479L8.6293 7.50876L8.74772 7.27749L12.0967 0.736519C12.0969 0.736194 12.097 0.735868 12.0972 0.735543C12.2028 0.533454 12.474 0.435801 12.7045 0.545387L12.705 0.545658C12.7938 0.587736 12.8618 0.655118 12.9019 0.733625L12.9022 0.734064L16.2524 7.27749ZM4.42766 21.9367L4.42769 21.9367L4.42766 21.9367Z" stroke="black"/>
</svg>
